<?xml version="1.0" encoding="UTF-8" standalone="no"?>
<!DOCTYPE svg PUBLIC "-//W3C//DTD SVG 1.1//EN" "http://www.w3.org/Graphics/SVG/1.1/DTD/svg11.dtd">
<svg width="100%" height="100%" viewBox="0 0 960 960" version="1.1" xmlns="http://www.w3.org/2000/svg" xmlns:xlink="http://www.w3.org/1999/xlink" xml:space="preserve" xmlns:serif="http://www.serif.com/" style="fill-rule:evenodd;clip-rule:evenodd;stroke-linejoin:round;stroke-miterlimit:2;">
    <!-- Background from the target format -->
    <g transform="matrix(1.13341,0,0,1.13341,-36.9503,-43.0342)">
        <path d="M878.621,178.762C878.621,101.597 815.973,38.95 738.808,38.95L173.394,38.95C96.23,38.95 33.582,101.597 33.582,178.762L33.582,744.176C33.582,821.34 96.23,883.988 173.394,883.988L738.808,883.988C815.973,883.988 878.621,821.34 878.621,744.176L878.621,178.762Z" style="fill:rgb(1,4,26);"/>
    </g>
    <!-- Your icon, transformed, scaled, and colored white -->
    <g transform="translate(105, 790.7) scale(0.06696, -0.06696)" fill="white">
        <path d="M5465 9033 c-549 -29 -1040 -142 -1560 -360 -301 -126 -697 -365 -966 -583 -362 -293 -706 -677 -937 -1047 -122 -195 -251 -444 -342 -658 -90 -213 -211 -615 -245 -815 -3 -19 -10 -55 -15 -80 -11 -51 -33 -216 -51 -370 -18 -157 -15 -690 4 -880 23 -213 48 -385 76 -505 5 -22 16 -70 25 -106 54 -243 180 -598 306 -864 288 -609 795 -1218 1331 -1597 541 -383 1086 -621 1704 -747 464 -95 1026 -112 1481 -46 230 33 565 112 734 171 25 9 77 28 115 41 697 246 1368 711 1847 1280 402 477 734 1121 878 1703 41 165 76 329 90 425 5 39 18 122 27 185 22 146 25 803 5 971 -66 553 -210 1041 -449 1514 -219 435 -441 745 -781 1088 -461 467 -995 809 -1597 1024 -94 34 -209 69 -370 114 -384 107 -907 163 -1310 142z m1273 -1295 c-14 -336 -183 -661 -448 -862 -159 -122 -371 -195 -573 -199 l-82 -2 -3 47 c-5 75 24 265 54 353 69 207 207 408 372 542 173 141 425 240 616 242 l69 1 -5 -122z m1134 -446 c-7 -2 -12 -8 -12 -12 0 -5 -67 -98 -148 -207 -82 -109 -191 -256 -242 -328 -52 -71 -119 -162 -150 -202 -69 -90 -270 -358 -392 -523 -81 -109 -344 -462 -823 -1101 -77 -102 -199 -267 -272 -365 -72 -98 -162 -215 -200 -260 -37 -45 -112 -135 -165 -200 -53 -65 -179 -220 -280 -344 -101 -124 -227 -279 -280 -345 -53 -66 -130 -160 -170 -210 -41 -49 -155 -191 -255 -315 -189 -235 -267 -332 -548 -676 -93 -114 -192 -235 -219 -269 -26 -33 -58 -71 -70 -85 -11 -14 -54 -67 -95 -118 -41 -50 -76 -90 -79 -87 -5 4 18 42 43 73 20 24 119 158 275 372 129 178 355 481 674 905 506 672 921 1230 1031 1385 75 106 144 193 354 449 48 57 102 123 121 147 222 274 382 470 465 570 55 67 159 195 230 284 302 376 410 509 473 585 37 44 122 148 189 230 67 83 199 245 295 361 95 115 191 234 213 262 22 29 42 47 44 40 2 -6 -1 -14 -7 -16z m-2932 -734 c52 -11 109 -24 125 -29 78 -23 186 -63 282 -104 199 -85 346 -106 508 -71 44 10 156 47 249 82 293 112 495 149 726 133 106 -8 236 -33 253 -49 7 -6 -322 -418 -700 -876 -81 -97 -343 -417 -380 -464 -2 -2 -12 1 -21 8 -80 57 -164 82 -272 82 -251 -1 -387 -111 -480 -390 -52 -156 -62 -230 -67 -515 l-6 -269 -61 -82 c-33 -45 -124 -166 -201 -270 -231 -313 -824 -1105 -878 -1173 l-51 -64 -24 29 c-35 42 -184 270 -219 334 -82 150 -107 199 -156 307 -151 329 -235 619 -293 1008 -28 183 -25 629 4 820 38 249 49 280 81 241 37 -44 199 -80 295 -65 67 11 148 53 187 97 31 35 31 35 122 36 104 2 156 20 220 76 65 57 90 111 95 207 3 55 0 99 -9 125 -12 37 -11 41 7 54 40 29 97 90 114 124 56 110 43 241 -34 335 -18 22 -42 60 -53 85 -18 42 -73 100 -119 126 -17 10 -15 13 24 33 23 12 97 37 165 57 194 56 375 63 567 22z m2488 -183 c215 -126 429 -350 535 -561 l26 -51 -74 -38 c-264 -136 -480 -475 -526 -824 -16 -122 -13 -339 7 -451 32 -187 129 -427 221 -548 92 -122 234 -242 360 -305 l72 -37 -23 -72 c-114 -361 -368 -839 -576 -1082 -185 -216 -306 -316 -451 -374 -125 -49 -141 -53 -245 -59 -88 -5 -113 -2 -204 21 -58 15 -145 45 -195 68 -238 107 -409 150 -605 150 -183 1 -292 -25 -580 -139 -329 -131 -487 -134 -721 -17 -72 36 -188 124 -258 197 l-44 46 34 43 c63 81 193 243 199 248 4 3 109 133 235 290 126 156 237 293 246 305 29 34 209 256 294 363 44 55 82 101 85 101 3 0 24 -39 47 -87 92 -194 214 -272 423 -272 235 1 349 89 461 355 15 35 38 139 59 258 40 237 36 598 -11 831 -11 55 -23 104 -25 108 -3 5 5 23 17 41 44 62 439 594 471 632 9 11 78 103 152 205 318 433 512 689 523 690 7 0 39 -16 71 -35z"/>
    </g>
</svg>